<svg xmlns="http://www.w3.org/2000/svg" viewBox="0 0 2991 815" width="891" height="243">
	<defs>
		<clipPath clipPathUnits="userSpaceOnUse" id="cp1">
			<path d="M-214 -259L2991 -259L2991 1782L-214 1782Z" />
		</clipPath>
	</defs>
	<style>
		tspan { white-space:pre }
		.shp0 { fill: #e20613 } 
		.shp1 { fill: #000000 } 
		.shp2 { fill: none;stroke: #e20613;stroke-width: 27.384 } 
		.shp3 { fill: #ffffff } 
	</style>
	<g id="Page 1" clip-path="url(#cp1)">
		<path id="Path 1" class="shp0" d="M30 832.43L-214 1208.07L29.34 1582.32L2708.07 1582.32L2464.7 1208.05L2708.7 832.43L30 832.43Z" />
		<path id="Path 2" fill-rule="evenodd" class="shp1" d="M517.85 974.98L517.85 1105.93L397.54 1105.93L397.54 1159.77L506.55 1159.77L506.55 1284.08L397.54 1284.08L397.54 1440.28L229.37 1440.28L229.37 974.98L517.85 974.98ZM757.15 974.98C866.17 974.98 929.98 1041.46 929.98 1125.87C929.98 1179.72 895.42 1223.59 856.2 1245.52L962.55 1440.29L779.75 1440.29L713.95 1290.06L713.95 1440.29L550.43 1440.29L550.43 974.98L757.15 974.98ZM767.12 1133.85C767.12 1117.9 755.16 1101.28 733.89 1101.28L713.95 1101.28L713.95 1166.42L733.89 1166.42C755.16 1166.42 767.12 1149.8 767.12 1133.85ZM1136.04 1440.28L967.2 1440.28L967.2 974.98L1136.04 974.98L1136.04 1440.28ZM1342.1 974.98C1496.98 974.98 1602 1061.39 1602 1206.97C1602 1350.55 1498.31 1440.29 1342.1 1440.29L1175.92 1440.29L1175.92 974.98L1342.1 974.98ZM1349.41 1307.34C1397.93 1307.34 1429.84 1274.77 1429.84 1206.97C1429.84 1139.17 1397.93 1107.93 1349.41 1107.93L1339.44 1107.93L1339.44 1307.34L1349.41 1307.34Z" />
		<path id="Path 3" fill-rule="evenodd" class="shp1" d="M1727.64 1440.29L1562.79 1440.29L1723.65 974.98L1889.83 974.98L2050.69 1440.29L1877.86 1440.29L1857.26 1369.16L1748.24 1369.16L1727.64 1440.29ZM1776.16 1250.84L1828.68 1250.84L1802.75 1155.12L1776.16 1250.84ZM2089.24 1241.53L1943.67 974.98L2130.46 974.98L2176.99 1107.26L2223.52 974.98L2403.65 974.98L2258.08 1241.53L2258.08 1440.28L2089.24 1440.28L2089.24 1241.53Z" />
		<path id="Path 4" fill-rule="evenodd" class="shp0" d="M710.44 163.91C816.8 163.91 882.6 217.09 882.6 294.86C882.6 332.75 868.64 362.66 834.74 385.92C870.64 405.87 891.91 445.75 891.91 483.64C891.91 578.03 822.11 629.21 721.08 629.21L509.03 629.21L509.03 163.91L710.44 163.91ZM727.06 314.13C727.06 301.5 718.42 288.21 700.47 288.21L671.22 288.21L671.22 340.06L700.47 340.06C718.42 340.06 727.06 326.76 727.06 314.13ZM731.71 473C731.71 455.72 718.42 441.76 700.47 441.76L671.22 441.76L671.22 504.24L700.47 504.24C718.42 504.24 731.71 490.28 731.71 473ZM1091.32 163.91L1091.32 498.26L1218.95 498.26L1218.95 629.21L922.48 629.21L922.48 163.91L1091.32 163.91ZM1394.43 629.21L1229.58 629.21L1390.45 163.91L1556.63 163.91L1717.49 629.21L1544.66 629.21L1524.06 558.09L1415.04 558.09L1394.43 629.21ZM1442.96 439.77L1495.47 439.77L1469.55 344.05L1442.96 439.77ZM1932.19 155.27C2002.65 155.27 2051.17 175.21 2088.4 201.13L2037.88 334.07C2015.28 312.14 1986.7 298.18 1950.8 298.18C1897.62 298.18 1857.74 338.06 1857.74 395.89C1857.74 456.38 1898.95 494.94 1950.8 494.94C1989.35 494.94 2019.93 477.65 2041.2 458.38L2091.06 591.99C2052.5 619.24 2005.31 637.85 1932.19 637.85C1786.62 637.85 1681.59 540.8 1681.59 395.89C1681.59 262.29 1780.63 155.27 1932.19 155.27ZM2281.17 163.91L2281.17 332.75L2360.93 163.91L2545.06 163.91L2430.06 385.92L2549.71 629.21L2362.26 629.21L2281.17 437.77L2281.17 629.21L2112.33 629.21L2112.33 163.91L2281.17 163.91Z" />
		<path id="Path 5" class="shp2" d="M96.7 757.66L330.59 397.95L96.04 36.88L2740.04 36.88L2974.58 397.95L2740.7 757.66L96.7 757.66Z" />
		<path id="Path 6" fill-rule="evenodd" class="shp3" d="M193.07 -255.87L271.49 -255.87L271.49 -83.24L210.58 -83.24L210.58 -166.35L193.56 -96.31L138.32 -96.31L121.31 -166.35L121.31 -83.24L60.4 -83.24L60.4 -255.87L138.82 -255.87L165.94 -157.72L193.07 -255.87ZM393.31 -255.87L393.31 -207.29L347.94 -207.29L347.94 -192.98L388.38 -192.98L388.38 -147.36L347.94 -147.36L347.94 -131.83L393.31 -131.83L393.31 -83.24L285.55 -83.24L285.55 -255.87L393.31 -255.87ZM405.4 -207.29L405.4 -255.87L535.85 -255.87L535.85 -207.29L501.82 -207.29L501.82 -83.24L439.18 -83.24L439.18 -207.29L405.4 -207.29ZM649.29 -83.24L588.13 -83.24L647.81 -255.87L709.46 -255.87L769.14 -83.24L705.02 -83.24L697.38 -109.63L656.94 -109.63L649.29 -83.24ZM667.29 -153.53L686.78 -153.53L677.16 -189.04L667.29 -153.53ZM883.82 -255.87L883.82 -207.29L839.18 -207.29L839.18 -187.31L879.62 -187.31L879.62 -141.2L839.18 -141.2L839.18 -83.24L776.79 -83.24L776.79 -255.87L883.82 -255.87ZM892.2 -204.08C892.2 -237.37 918.34 -259.07 957.06 -259.07C996.52 -259.07 1018.46 -233.18 1023.15 -218.38L979.25 -193.23C975.55 -200.87 968.16 -209.01 960.26 -209.01C957.06 -209.01 955.09 -207.04 955.09 -204.57C955.09 -188.3 1022.66 -184.35 1022.66 -135.77C1022.66 -101.74 996.52 -80.04 955.33 -80.04C914.15 -80.04 893.44 -107.16 887.02 -124.92L931.66 -149.09C938.07 -138.24 946.95 -130.84 954.59 -130.84C957.8 -130.84 959.53 -132.56 959.53 -135.03C959.53 -150.81 892.2 -153.03 892.2 -204.08ZM1024.88 -207.29L1024.88 -255.87L1155.33 -255.87L1155.33 -207.29L1121.3 -207.29L1121.3 -83.24L1058.66 -83.24L1058.66 -207.29L1024.88 -207.29Z" />
		<path id="Path 7" fill-rule="evenodd" class="shp3" d="M1193.06 -83.24L1131.91 -83.24L1191.58 -255.87L1253.24 -255.87L1312.91 -83.24L1248.8 -83.24L1241.15 -109.63L1200.71 -109.63L1193.06 -83.24ZM1211.07 -153.53L1230.55 -153.53L1220.93 -189.04L1211.07 -153.53ZM1379.75 -255.87L1417.23 -174.74L1417.23 -255.87L1479.13 -255.87L1479.13 -83.24L1415.75 -83.24L1378.27 -164.38L1378.27 -83.24L1316.37 -83.24L1316.37 -255.87L1379.75 -255.87ZM1554.59 -255.87C1612.05 -255.87 1651.01 -223.81 1651.01 -169.8C1651.01 -116.54 1612.54 -83.24 1554.59 -83.24L1492.94 -83.24L1492.94 -255.87L1554.59 -255.87ZM1557.3 -132.56C1575.3 -132.56 1587.14 -144.65 1587.14 -169.8C1587.14 -194.96 1575.3 -206.55 1557.3 -206.55L1553.6 -206.55L1553.6 -132.56L1557.3 -132.56Z" />
	</g>
</svg>