<svg xmlns="http://www.w3.org/2000/svg" viewBox="0 0 2922 793" width="800" height="217">
	<defs>
		<clipPath clipPathUnits="userSpaceOnUse" id="cp1">
			<path d="M0 -1066L3205 -1066L3205 975L0 975Z" />
		</clipPath>
	</defs>
	<style>
		tspan { white-space:pre }
		.shp0 { fill: #e20613 } 
		.shp1 { fill: #000000 } 
		.shp2 { fill: none;stroke: #e20613;stroke-width: 27.384 } 
		.shp3 { fill: #ffffff } 
	</style>
	<g id="Page 1" clip-path="url(#cp1)">
		<path id="Path 1" class="shp0" d="M244 25.43L0 401.07L243.34 775.32L2922.07 775.32L2678.7 401.05L2922.7 25.43L244 25.43Z" />
		<path id="Path 2" fill-rule="evenodd" class="shp1" d="M731.85 167.98L731.85 298.93L611.54 298.93L611.54 352.77L720.55 352.77L720.55 477.08L611.54 477.08L611.54 633.28L443.37 633.28L443.37 167.98L731.85 167.98ZM971.15 167.98C1080.17 167.98 1143.98 234.46 1143.98 318.87C1143.98 372.72 1109.42 416.59 1070.2 438.52L1176.55 633.29L993.75 633.29L927.95 483.06L927.95 633.29L764.43 633.29L764.43 167.98L971.15 167.98ZM981.12 326.85C981.12 310.9 969.16 294.28 947.89 294.28L927.95 294.28L927.95 359.42L947.89 359.42C969.16 359.42 981.12 342.8 981.12 326.85ZM1350.04 633.28L1181.2 633.28L1181.2 167.98L1350.04 167.98L1350.04 633.28ZM1556.1 167.98C1710.98 167.98 1816 254.39 1816 399.97C1816 543.55 1712.31 633.29 1556.1 633.29L1389.92 633.29L1389.92 167.98L1556.1 167.98ZM1563.41 500.34C1611.93 500.34 1643.84 467.77 1643.84 399.97C1643.84 332.17 1611.93 300.93 1563.41 300.93L1553.44 300.93L1553.44 500.34L1563.41 500.34Z" />
		<path id="Path 3" fill-rule="evenodd" class="shp1" d="M1941.64 633.29L1776.79 633.29L1937.65 167.98L2103.83 167.98L2264.69 633.29L2091.86 633.29L2071.26 562.16L1962.24 562.16L1941.64 633.29ZM1990.16 443.84L2042.68 443.84L2016.75 348.12L1990.16 443.84ZM2303.24 434.53L2157.67 167.98L2344.46 167.98L2390.99 300.26L2437.52 167.98L2617.65 167.98L2472.08 434.53L2472.08 633.28L2303.24 633.28L2303.24 434.53Z" />
		<path id="Path 4" fill-rule="evenodd" class="shp0" d="M924.44 -643.09C1030.8 -643.09 1096.6 -589.91 1096.6 -512.14C1096.6 -474.25 1082.64 -444.34 1048.74 -421.08C1084.64 -401.13 1105.91 -361.25 1105.91 -323.36C1105.91 -228.97 1036.11 -177.79 935.08 -177.79L723.03 -177.79L723.03 -643.09L924.44 -643.09ZM941.06 -492.87C941.06 -505.5 932.42 -518.79 914.47 -518.79L885.22 -518.79L885.22 -466.94L914.47 -466.94C932.42 -466.94 941.06 -480.24 941.06 -492.87ZM945.71 -334C945.71 -351.28 932.42 -365.24 914.47 -365.24L885.22 -365.24L885.22 -302.76L914.47 -302.76C932.42 -302.76 945.71 -316.72 945.71 -334ZM1305.32 -643.09L1305.32 -308.74L1432.95 -308.74L1432.95 -177.79L1136.48 -177.79L1136.48 -643.09L1305.32 -643.09ZM1608.43 -177.79L1443.58 -177.79L1604.45 -643.09L1770.63 -643.09L1931.49 -177.79L1758.66 -177.79L1738.06 -248.91L1629.04 -248.91L1608.43 -177.79ZM1656.96 -367.23L1709.47 -367.23L1683.55 -462.95L1656.96 -367.23ZM2146.19 -651.73C2216.65 -651.73 2265.17 -631.79 2302.4 -605.87L2251.88 -472.93C2229.28 -494.86 2200.7 -508.82 2164.8 -508.82C2111.62 -508.82 2071.74 -468.94 2071.74 -411.11C2071.74 -350.62 2112.95 -312.06 2164.8 -312.06C2203.35 -312.06 2233.93 -329.35 2255.2 -348.62L2305.06 -215.01C2266.5 -187.76 2219.31 -169.15 2146.19 -169.15C2000.62 -169.15 1895.59 -266.2 1895.59 -411.11C1895.59 -544.71 1994.63 -651.73 2146.19 -651.73ZM2495.17 -643.09L2495.17 -474.25L2574.93 -643.09L2759.06 -643.09L2644.06 -421.08L2763.71 -177.79L2576.26 -177.79L2495.17 -369.23L2495.17 -177.79L2326.33 -177.79L2326.33 -643.09L2495.17 -643.09Z" />
		<path id="Path 5" class="shp2" d="M310.7 -49.34L544.59 -409.05L310.04 -770.12L2954.04 -770.12L3188.58 -409.05L2954.7 -49.34L310.7 -49.34Z" />
		<path id="Path 6" fill-rule="evenodd" class="shp3" d="M407.07 -1062.87L485.49 -1062.87L485.49 -890.24L424.58 -890.24L424.58 -973.35L407.56 -903.31L352.32 -903.31L335.31 -973.35L335.31 -890.24L274.4 -890.24L274.4 -1062.87L352.82 -1062.87L379.94 -964.72L407.07 -1062.87ZM607.31 -1062.87L607.31 -1014.29L561.94 -1014.29L561.94 -999.98L602.38 -999.98L602.38 -954.36L561.94 -954.36L561.94 -938.83L607.31 -938.83L607.31 -890.24L499.55 -890.24L499.55 -1062.87L607.31 -1062.87ZM619.4 -1014.29L619.4 -1062.87L749.85 -1062.87L749.85 -1014.29L715.82 -1014.29L715.82 -890.24L653.18 -890.24L653.18 -1014.29L619.4 -1014.29ZM863.29 -890.24L802.13 -890.24L861.81 -1062.87L923.46 -1062.87L983.14 -890.24L919.02 -890.24L911.38 -916.63L870.94 -916.63L863.29 -890.24ZM881.29 -960.53L900.78 -960.53L891.16 -996.04L881.29 -960.53ZM1097.82 -1062.87L1097.82 -1014.29L1053.18 -1014.29L1053.18 -994.31L1093.62 -994.31L1093.62 -948.2L1053.18 -948.2L1053.18 -890.24L990.79 -890.24L990.79 -1062.87L1097.82 -1062.87ZM1106.2 -1011.08C1106.2 -1044.37 1132.34 -1066.07 1171.06 -1066.07C1210.52 -1066.07 1232.46 -1040.18 1237.15 -1025.38L1193.25 -1000.23C1189.55 -1007.87 1182.16 -1016.01 1174.26 -1016.01C1171.06 -1016.01 1169.09 -1014.04 1169.09 -1011.57C1169.09 -995.3 1236.66 -991.35 1236.66 -942.77C1236.66 -908.74 1210.52 -887.04 1169.33 -887.04C1128.15 -887.04 1107.44 -914.16 1101.02 -931.92L1145.66 -956.09C1152.07 -945.24 1160.95 -937.84 1168.59 -937.84C1171.8 -937.84 1173.53 -939.56 1173.53 -942.03C1173.53 -957.81 1106.2 -960.03 1106.2 -1011.08ZM1238.88 -1014.29L1238.88 -1062.87L1369.33 -1062.87L1369.33 -1014.29L1335.3 -1014.29L1335.3 -890.24L1272.66 -890.24L1272.66 -1014.29L1238.88 -1014.29Z" />
		<path id="Path 7" fill-rule="evenodd" class="shp3" d="M1407.06 -890.24L1345.91 -890.24L1405.58 -1062.87L1467.24 -1062.87L1526.91 -890.24L1462.8 -890.24L1455.15 -916.63L1414.71 -916.63L1407.06 -890.24ZM1425.07 -960.53L1444.55 -960.53L1434.93 -996.04L1425.07 -960.53ZM1593.75 -1062.87L1631.23 -981.74L1631.23 -1062.87L1693.13 -1062.87L1693.13 -890.24L1629.75 -890.24L1592.27 -971.38L1592.27 -890.24L1530.37 -890.24L1530.37 -1062.87L1593.75 -1062.87ZM1768.59 -1062.87C1826.05 -1062.87 1865.01 -1030.81 1865.01 -976.8C1865.01 -923.54 1826.54 -890.24 1768.59 -890.24L1706.94 -890.24L1706.94 -1062.87L1768.59 -1062.87ZM1771.3 -939.56C1789.3 -939.56 1801.14 -951.65 1801.14 -976.8C1801.14 -1001.96 1789.3 -1013.55 1771.3 -1013.55L1767.6 -1013.55L1767.6 -939.56L1771.3 -939.56Z" />
	</g>
</svg>