<svg xmlns="http://www.w3.org/2000/svg" xmlns:xlink="http://www.w3.org/1999/xlink" viewBox="0 0 25 14" ><defs><style>.cls-3{fill:#222220;}.cls-4{fill:#c20d19;}.cls-5{fill:#fff;}</style></defs><g transform="translate(-168 0)">
<path class="cls-3" d="M188.32,15.22h.09l-.05,0h-.53a.08.08,0,0,1-.05,0,.16.16,0,0,0,.1-.15.14.14,0,0,0-.12-.16h0s0,0,.06,0h.54s0,0,.06,0h-.09a.16.16,0,0,0,0,.32M187,14.9a.14.14,0,0,0-.13.16.14.14,0,0,0,.11.16h0a.09.09,0,0,1-.08,0l-.48-.24a.06.06,0,0,1,0,0,.15.15,0,0,0,.18-.08.14.14,0,0,0,0-.2l0,0h0s.06,0,.07,0l.48.24,0,0ZM186,14.32a.14.14,0,0,0-.19.07.15.15,0,0,0,0,.2l.07,0a.09.09,0,0,1-.07,0l-.48-.24a.1.1,0,0,1,0-.06h.08a.14.14,0,0,0,.13-.16.17.17,0,0,0-.06-.14.08.08,0,0,1,.07,0l.48.24s0,0,0,.06h0Zm-1.29,0h0s0,0,0,0h-.54s0,0-.06,0h.16a.16.16,0,0,0,0-.32h-.16s0,0,.06,0h.54s0,0,.06,0h0a.14.14,0,0,0-.12.16.14.14,0,0,0,.12.16M198,8.3a.59.59,0,0,0-.32-.28l-2-.75-.72-1.78a1.4,1.4,0,0,0-.18-.43.55.55,0,0,0-.09-.12h0A1.44,1.44,0,0,0,193,4.47l-.11,0-2.39.78a.61.61,0,0,0-.29.21.61.61,0,0,0-.17.33l-.35,2.49a.6.6,0,1,0,1.19.17l.31-2.16L192,6l-.75,2.16a1.42,1.42,0,0,0,.23,1.38l-.35.77-2.07,4.59h-.38a.49.49,0,0,0-.08-.17.33.33,0,0,0-.27-.14h-.53a.33.33,0,0,0-.26.15.48.48,0,0,0-.07.15h-.08a.32.32,0,0,0-.17-.25l-.48-.24a.34.34,0,0,0-.31,0,.5.5,0,0,0-.13.1l-.05,0a.5.5,0,0,0,0-.18.33.33,0,0,0-.17-.25l-.48-.24a.33.33,0,0,0-.3,0,.52.52,0,0,0-.2.2H185a.52.52,0,0,0-.07-.16.34.34,0,0,0-.27-.15h-.54a.34.34,0,0,0-.27.15.51.51,0,0,0-.07.15h-.07a.17.17,0,0,0-.33,0l-.11.36a.17.17,0,0,0,.32.1l0-.1h.16a.46.46,0,0,0,.07.14.33.33,0,0,0,.27.15h.54a.33.33,0,0,0,.27-.15.46.46,0,0,0,.06-.13h.07v0a.32.32,0,0,0,.17.25l.48.24a.33.33,0,0,0,.31,0l.11-.08.06,0a.48.48,0,0,0,0,.16.34.34,0,0,0,.17.25l.48.24a.32.32,0,0,0,.3,0,.54.54,0,0,0,.21-.22h.14a.47.47,0,0,0,.07.14.32.32,0,0,0,.27.15h.54a.34.34,0,0,0,.26-.15.49.49,0,0,0,.06-.12H189a.75.75,0,0,0,1.43.34l2.11-4.69,1,1.34.38,3.15a.75.75,0,0,0,1.49-.18L195.07,12a1.29,1.29,0,0,0-.26-.63l-1.24-1.63.11-.25.77-1.9.13.31a.73.73,0,0,0,.38.37l.91.34L197,9l.24.09,0,0a.59.59,0,0,0,.75-.34l0-.22A.58.58,0,0,0,198,8.3m-3.13-3.94a1.11,1.11,0,1,0-1.11-1.11,1.11,1.11,0,0,0,1.11,1.11" transform="translate(-10.35 -2.13)"/><rect class="cls-4" x="168.94" y="9.71" width="4.11" height="4.11"/><path class="cls-5" d="M182.13,13.19c-.21,0-.3-.24-.61-.24a.57.57,0,0,0-.55.46h.77c.11,0,.21,0,.21.14s-.09.15-.21.15h-.82a.67.67,0,0,0,0,.09v.12h.67c.11,0,.21,0,.21.14s-.09.15-.21.15H181a.58.58,0,0,0,.58.51c.27,0,.43-.22.63-.22a.23.23,0,0,1,.22.25c0,.36-.61.45-.88.45a1.08,1.08,0,0,1-1.14-1h-.09c-.1,0-.21,0-.21-.15s.15-.15.26-.15v-.11s0-.07,0-.1h-.07c-.1,0-.2,0-.2-.15s.19-.15.31-.15a1.13,1.13,0,0,1,1.15-1c.27,0,.87.11.87.46a.27.27,0,0,1-.25.28" transform="translate(-10.35 -2.13)"/>
</g>
</svg>