<svg xmlns="http://www.w3.org/2000/svg" viewBox="0 0 1269 268" width="1269" height="268">
	<defs>
		<clipPath clipPathUnits="userSpaceOnUse" id="cp1">
			<path d="M-1746 -1773L1459 -1773L1459 268L-1746 268Z" />
		</clipPath>
	</defs>
	<style>
		tspan { white-space:pre }
		.shp0 { fill: #e20613 } 
		.shp1 { fill: none;stroke: #e20613;stroke-width: 27.384 } 
		.shp2 { fill: #ffffff } 
	</style>
	<g id="Page 1" clip-path="url(#cp1)">
		<path id="Path 1" class="shp0" d="M-1502 -681.57L-1746 -305.93L-1502.66 68.32L1176.07 68.32L932.7 -305.95L1176.7 -681.57L-1502 -681.57Z" />
		<path id="Path 4" fill-rule="evenodd" class="shp0" d="M-821.56 -1350.09C-715.2 -1350.09 -649.4 -1296.91 -649.4 -1219.14C-649.4 -1181.25 -663.36 -1151.34 -697.26 -1128.08C-661.36 -1108.13 -640.09 -1068.25 -640.09 -1030.36C-640.09 -935.97 -709.89 -884.79 -810.92 -884.79L-1022.97 -884.79L-1022.97 -1350.09L-821.56 -1350.09ZM-804.94 -1199.87C-804.94 -1212.5 -813.58 -1225.79 -831.53 -1225.79L-860.78 -1225.79L-860.78 -1173.94L-831.53 -1173.94C-813.58 -1173.94 -804.94 -1187.24 -804.94 -1199.87ZM-800.29 -1041C-800.29 -1058.28 -813.58 -1072.24 -831.53 -1072.24L-860.78 -1072.24L-860.78 -1009.76L-831.53 -1009.76C-813.58 -1009.76 -800.29 -1023.72 -800.29 -1041ZM-440.68 -1350.09L-440.68 -1015.74L-313.05 -1015.74L-313.05 -884.79L-609.52 -884.79L-609.52 -1350.09L-440.68 -1350.09ZM-137.57 -884.79L-302.42 -884.79L-141.55 -1350.09L24.63 -1350.09L185.49 -884.79L12.66 -884.79L-7.94 -955.91L-116.96 -955.91L-137.57 -884.79ZM-89.04 -1074.23L-36.53 -1074.23L-62.45 -1169.95L-89.04 -1074.23ZM400.19 -1358.73C470.65 -1358.73 519.17 -1338.79 556.4 -1312.87L505.88 -1179.93C483.28 -1201.86 454.7 -1215.82 418.8 -1215.82C365.62 -1215.82 325.74 -1175.94 325.74 -1118.11C325.74 -1057.62 366.95 -1019.06 418.8 -1019.06C457.35 -1019.06 487.93 -1036.35 509.2 -1055.62L559.06 -922.01C520.5 -894.76 473.31 -876.15 400.19 -876.15C254.62 -876.15 149.59 -973.2 149.59 -1118.11C149.59 -1251.71 248.63 -1358.73 400.19 -1358.73ZM749.17 -1350.09L749.17 -1181.25L828.93 -1350.09L1013.06 -1350.09L898.06 -1128.08L1017.71 -884.79L830.26 -884.79L749.17 -1076.23L749.17 -884.79L580.33 -884.79L580.33 -1350.09L749.17 -1350.09Z" />
		<path id="Path 5" class="shp1" d="M-1435.3 -757.34L-1201.41 -1117.05L-1435.96 -1478.12L1208.04 -1478.12L1442.58 -1117.05L1208.7 -757.34L-1435.3 -757.34Z" />
		<path id="Path 6" fill-rule="evenodd" class="shp2" d="M-1338.93 -1769.87L-1260.51 -1769.87L-1260.51 -1597.24L-1321.42 -1597.24L-1321.42 -1680.35L-1338.44 -1610.31L-1393.68 -1610.31L-1410.69 -1680.35L-1410.69 -1597.24L-1471.6 -1597.24L-1471.6 -1769.87L-1393.18 -1769.87L-1366.06 -1671.72L-1338.93 -1769.87ZM-1138.69 -1769.87L-1138.69 -1721.29L-1184.06 -1721.29L-1184.06 -1706.98L-1143.62 -1706.98L-1143.62 -1661.36L-1184.06 -1661.36L-1184.06 -1645.83L-1138.69 -1645.83L-1138.69 -1597.24L-1246.45 -1597.24L-1246.45 -1769.87L-1138.69 -1769.87ZM-1126.6 -1721.29L-1126.6 -1769.87L-996.15 -1769.87L-996.15 -1721.29L-1030.18 -1721.29L-1030.18 -1597.24L-1092.82 -1597.24L-1092.82 -1721.29L-1126.6 -1721.29ZM-882.71 -1597.24L-943.87 -1597.24L-884.19 -1769.87L-822.54 -1769.87L-762.86 -1597.24L-826.98 -1597.24L-834.62 -1623.63L-875.06 -1623.63L-882.71 -1597.24ZM-864.71 -1667.53L-845.22 -1667.53L-854.84 -1703.04L-864.71 -1667.53ZM-648.18 -1769.87L-648.18 -1721.29L-692.82 -1721.29L-692.82 -1701.31L-652.38 -1701.31L-652.38 -1655.2L-692.82 -1655.2L-692.82 -1597.24L-755.21 -1597.24L-755.21 -1769.87L-648.18 -1769.87ZM-639.8 -1718.08C-639.8 -1751.37 -613.66 -1773.07 -574.94 -1773.07C-535.48 -1773.07 -513.54 -1747.18 -508.85 -1732.38L-552.75 -1707.23C-556.45 -1714.87 -563.84 -1723.01 -571.74 -1723.01C-574.94 -1723.01 -576.91 -1721.04 -576.91 -1718.57C-576.91 -1702.3 -509.34 -1698.35 -509.34 -1649.77C-509.34 -1615.74 -535.48 -1594.04 -576.67 -1594.04C-617.85 -1594.04 -638.56 -1621.16 -644.98 -1638.92L-600.34 -1663.09C-593.93 -1652.24 -585.05 -1644.84 -577.41 -1644.84C-574.2 -1644.84 -572.47 -1646.56 -572.47 -1649.03C-572.47 -1664.81 -639.8 -1667.03 -639.8 -1718.08ZM-507.12 -1721.29L-507.12 -1769.87L-376.67 -1769.87L-376.67 -1721.29L-410.7 -1721.29L-410.7 -1597.24L-473.34 -1597.24L-473.34 -1721.29L-507.12 -1721.29Z" />
		<path id="Path 7" fill-rule="evenodd" class="shp2" d="M-338.94 -1597.24L-400.09 -1597.24L-340.42 -1769.87L-278.76 -1769.87L-219.09 -1597.24L-283.2 -1597.24L-290.85 -1623.63L-331.29 -1623.63L-338.94 -1597.24ZM-320.93 -1667.53L-301.45 -1667.53L-311.07 -1703.04L-320.93 -1667.53ZM-152.25 -1769.87L-114.77 -1688.74L-114.77 -1769.87L-52.87 -1769.87L-52.87 -1597.24L-116.25 -1597.24L-153.73 -1678.38L-153.73 -1597.24L-215.63 -1597.24L-215.63 -1769.87L-152.25 -1769.87ZM22.59 -1769.87C80.05 -1769.87 119.01 -1737.81 119.01 -1683.8C119.01 -1630.54 80.54 -1597.24 22.59 -1597.24L-39.06 -1597.24L-39.06 -1769.87L22.59 -1769.87ZM25.3 -1646.56C43.3 -1646.56 55.14 -1658.65 55.14 -1683.8C55.14 -1708.96 43.3 -1720.55 25.3 -1720.55L21.6 -1720.55L21.6 -1646.56L25.3 -1646.56Z" />
		<path id="Path 8" fill-rule="evenodd" class="shp0" d="M253.93 -1769.87C311.39 -1769.87 350.35 -1737.81 350.35 -1683.8C350.35 -1630.54 311.88 -1597.24 253.93 -1597.24L192.28 -1597.24L192.28 -1769.87L253.93 -1769.87ZM256.64 -1646.56C274.64 -1646.56 286.48 -1658.65 286.48 -1683.8C286.48 -1708.96 274.64 -1720.55 256.64 -1720.55L252.94 -1720.55L252.94 -1646.56L256.64 -1646.56ZM467.24 -1769.87L467.24 -1721.29L421.87 -1721.29L421.87 -1706.98L462.31 -1706.98L462.31 -1661.36L421.87 -1661.36L421.87 -1645.83L467.24 -1645.83L467.24 -1597.24L359.47 -1597.24L359.47 -1769.87L467.24 -1769.87ZM604.36 -1769.87C643.81 -1769.87 668.23 -1750.14 668.23 -1721.29C668.23 -1707.23 663.05 -1696.13 650.47 -1687.5C663.79 -1680.1 671.68 -1665.31 671.68 -1651.25C671.68 -1616.23 645.79 -1597.24 608.3 -1597.24L529.63 -1597.24L529.63 -1769.87L604.36 -1769.87ZM610.52 -1714.14C610.52 -1718.82 607.32 -1723.75 600.66 -1723.75L589.81 -1723.75L589.81 -1704.52L600.66 -1704.52C607.32 -1704.52 610.52 -1709.45 610.52 -1714.14ZM612.25 -1655.2C612.25 -1661.61 607.32 -1666.79 600.66 -1666.79L589.81 -1666.79L589.81 -1643.61L600.66 -1643.61C607.32 -1643.61 612.25 -1648.78 612.25 -1655.2ZM787.83 -1769.87L787.83 -1721.29L742.46 -1721.29L742.46 -1706.98L782.9 -1706.98L782.9 -1661.36L742.46 -1661.36L742.46 -1645.83L787.83 -1645.83L787.83 -1597.24L680.06 -1597.24L680.06 -1769.87L787.83 -1769.87ZM798.68 -1718.08C798.68 -1751.37 824.82 -1773.07 863.54 -1773.07C903 -1773.07 924.94 -1747.18 929.63 -1732.38L885.73 -1707.23C882.04 -1714.87 874.64 -1723.01 866.75 -1723.01C863.54 -1723.01 861.57 -1721.04 861.57 -1718.57C861.57 -1702.3 929.14 -1698.35 929.14 -1649.77C929.14 -1615.74 903 -1594.04 861.81 -1594.04C820.63 -1594.04 799.92 -1621.16 793.5 -1638.92L838.14 -1663.09C844.55 -1652.24 853.43 -1644.84 861.07 -1644.84C864.28 -1644.84 866.01 -1646.56 866.01 -1649.03C866.01 -1664.81 798.68 -1667.03 798.68 -1718.08ZM936.29 -1721.29L936.29 -1769.87L1066.75 -1769.87L1066.75 -1721.29L1032.72 -1721.29L1032.72 -1597.24L970.08 -1597.24L970.08 -1721.29L936.29 -1721.29ZM1185.12 -1769.87L1185.12 -1721.29L1139.74 -1721.29L1139.74 -1706.98L1180.19 -1706.98L1180.19 -1661.36L1139.74 -1661.36L1139.74 -1645.83L1185.12 -1645.83L1185.12 -1597.24L1077.35 -1597.24L1077.35 -1769.87L1185.12 -1769.87Z" />
		<path id="Path 9" class="shp2" d="M5.59 6.05L1183.94 6.05L1268.95 136.78L1183.71 268L14.41 268L90.6 136.79L5.59 6.05Z" />
		<path id="Path 10" fill-rule="evenodd" class="shp0" d="M207.77 68.46C240.22 68.46 259.46 88.5 259.46 116.14C259.46 144.39 239.02 164.62 208.37 164.62L197.75 164.62L197.75 208.7L148.87 208.7L148.87 68.46L207.77 68.46ZM212.98 117.14C212.98 110.93 208.77 106.52 202.76 106.52L197.75 106.52L197.75 127.76L202.36 127.76C207.97 127.76 212.98 123.95 212.98 117.14ZM325.77 68.46C358.62 68.46 377.86 88.5 377.86 113.94C377.86 130.17 367.44 143.39 355.62 150L387.67 208.7L332.58 208.7L312.74 163.42L312.74 208.7L263.46 208.7L263.46 68.46L325.77 68.46ZM328.77 116.34C328.77 111.53 325.17 106.52 318.75 106.52L312.74 106.52L312.74 126.16L318.75 126.16C325.17 126.16 328.77 121.15 328.77 116.34ZM476.98 68.46L476.98 107.93L440.12 107.93L440.12 119.55L472.98 119.55L472.98 156.61L440.12 156.61L440.12 169.23L476.98 169.23L476.98 208.7L389.43 208.7L389.43 68.46L476.98 68.46ZM489.08 120.95L556.4 120.95L556.4 155.41L489.08 155.41L489.08 120.95ZM629.58 68.46C662.04 68.46 681.27 88.5 681.27 116.14C681.27 144.39 660.84 164.62 630.18 164.62L619.57 164.62L619.57 208.7L570.68 208.7L570.68 68.46L629.58 68.46ZM634.79 117.14C634.79 110.93 630.58 106.52 624.57 106.52L619.57 106.52L619.57 127.76L624.17 127.76C629.78 127.76 634.79 123.95 634.79 117.14ZM709.4 208.7L659.71 208.7L708.19 68.46L758.28 68.46L806.76 208.7L754.67 208.7L748.46 187.26L715.61 187.26L709.4 208.7ZM724.02 151.6L739.85 151.6L732.04 122.75L724.02 151.6ZM871.77 68.46C904.63 68.46 923.86 88.5 923.86 113.94C923.86 130.17 913.44 143.39 901.62 150L933.68 208.7L878.58 208.7L858.75 163.42L858.75 208.7L809.47 208.7L809.47 68.46L871.77 68.46ZM874.78 116.34C874.78 111.53 871.17 106.52 864.76 106.52L858.75 106.52L858.75 126.16L864.76 126.16C871.17 126.16 874.78 121.15 874.78 116.34ZM927.32 107.93L927.32 68.46L1088.9 68.46L1102.92 108.33L1116.95 68.46L1171.24 68.46L1127.37 148.8L1127.37 208.7L1076.48 208.7L1076.48 148.8L1033.31 69.75L1033.31 107.93L1005.66 107.93L1005.66 208.7L954.77 208.7L954.77 107.93L927.32 107.93Z" />
	</g>
</svg>